<svg id="clipboard-check" width="13" height="16" viewBox="0 0 13 16" fill="none" xmlns="http://www.w3.org/2000/svg">
<path fill-rule="evenodd" clip-rule="evenodd" d="M8.5 3C8.5 1.89543 7.60457 1 6.5 1C5.39543 1 4.5 1.89543 4.5 3H8.5Z" stroke="#4D4D4D" stroke-width="1.5" stroke-linecap="round" stroke-linejoin="round"/>
<path d="M4.03033 8.46963C3.73744 8.17674 3.26256 8.17674 2.96967 8.46963C2.67678 8.76252 2.67678 9.2374 2.96967 9.53029L4.03033 8.46963ZM5.5 11L4.96967 11.5303C5.26256 11.8232 5.73744 11.8232 6.03033 11.5303L5.5 11ZM10.0303 7.53029C10.3232 7.2374 10.3232 6.76252 10.0303 6.46963C9.73744 6.17674 9.26256 6.17674 8.96967 6.46963L10.0303 7.53029ZM8.5 2.24996C8.08579 2.24996 7.75 2.58574 7.75 2.99996C7.75 3.41417 8.08579 3.74996 8.5 3.74996V2.24996ZM10.167 2.99996V3.74996C10.175 3.74996 10.1831 3.74983 10.1911 3.74957L10.167 2.99996ZM12 4.71396H12.75C12.75 4.70522 12.7498 4.69649 12.7495 4.68776L12 4.71396ZM12 13.285L12.7496 13.3107C12.7499 13.3021 12.75 13.2936 12.75 13.285H12ZM10.167 15L10.1911 14.2503C10.1831 14.2501 10.175 14.25 10.167 14.25V15ZM2.833 15V14.25C2.82497 14.25 2.81694 14.2501 2.80891 14.2503L2.833 15ZM1 13.286H0.25C0.25 13.2947 0.250153 13.3034 0.250458 13.3122L1 13.286ZM1 4.71396L0.250458 4.68776C0.250153 4.69649 0.25 4.70522 0.25 4.71396H1ZM2.833 2.99996L2.80891 3.74957C2.81694 3.74983 2.82497 3.74996 2.833 3.74996V2.99996ZM4.5 3.74996C4.91421 3.74996 5.25 3.41417 5.25 2.99996C5.25 2.58574 4.91421 2.24996 4.5 2.24996V3.74996ZM2.96967 9.53029L4.96967 11.5303L6.03033 10.4696L4.03033 8.46963L2.96967 9.53029ZM6.03033 11.5303L10.0303 7.53029L8.96967 6.46963L4.96967 10.4696L6.03033 11.5303ZM8.5 3.74996H10.167V2.24996H8.5V3.74996ZM10.1911 3.74957C10.7569 3.73139 11.2307 4.17444 11.2505 4.74016L12.7495 4.68776C12.7009 3.29576 11.535 2.2056 10.1429 2.25035L10.1911 3.74957ZM11.25 4.71396V13.285H12.75V4.71396H11.25ZM11.2504 13.2592C11.231 13.8251 10.7571 14.2685 10.1911 14.2503L10.1429 15.7496C11.5356 15.7943 12.7017 14.7033 12.7496 13.3107L11.2504 13.2592ZM10.167 14.25H2.833V15.75H10.167V14.25ZM2.80891 14.2503C2.24313 14.2685 1.76932 13.8255 1.74954 13.2598L0.250458 13.3122C0.29912 14.7042 1.46497 15.7943 2.85709 15.7496L2.80891 14.2503ZM1.75 13.286V4.71396H0.25V13.286H1.75ZM1.74954 4.74016C1.76932 4.17444 2.24313 3.73139 2.80891 3.74957L2.85709 2.25035C1.46496 2.2056 0.29912 3.29576 0.250458 4.68776L1.74954 4.74016ZM2.833 3.74996H4.5V2.24996H2.833V3.74996Z" fill="#4D4D4D"/>
</svg>
