<?xml version="1.0" encoding="UTF-8"?>
<svg id="Layer_1" xmlns="http://www.w3.org/2000/svg" viewBox="0 0 19 19">
  <defs>
    <style>
      .cls-1 {
        fill: #4b545b;
      }
    </style>
  </defs>
  <path class="cls-1" d="M11.28,1.53l-6.4-.12c-.88-.02-1.61.69-1.62,1.57l-.25,12.8c-.02.88.68,1.61,1.56,1.63l9.61.18c.88.02,1.61-.69,1.63-1.57l.18-9.6L11.28,1.53ZM12.64,14.36l-6.4-.12.03-1.6,6.4.12-.03,1.6ZM12.7,11.16l-6.4-.12.03-1.6,6.4.12-.03,1.6ZM10.37,7.12l.08-4.4,4.32,4.48s-4.4-.08-4.4-.08Z"/>
</svg>