<svg id="dashboard" width="16" height="16" viewBox="0 0 16 16" fill="none" xmlns="http://www.w3.org/2000/svg">
<path d="M15.75 5C15.75 4.58579 15.4142 4.25 15 4.25C14.5858 4.25 14.25 4.58579 14.25 5L15.75 5ZM7 14.25C6.58579 14.25 6.25 14.5858 6.25 15C6.25 15.4142 6.58579 15.75 7 15.75V14.25ZM14.25 5C14.25 5.41421 14.5858 5.75 15 5.75C15.4142 5.75 15.75 5.41421 15.75 5L14.25 5ZM7 0.25C6.58579 0.25 6.25 0.585787 6.25 1C6.25 1.41421 6.58579 1.75 7 1.75V0.25ZM15 5.75C15.4142 5.75 15.75 5.41421 15.75 5C15.75 4.58579 15.4142 4.25 15 4.25V5.75ZM7 4.25C6.58579 4.25 6.25 4.58579 6.25 5C6.25 5.41421 6.58579 5.75 7 5.75V4.25ZM1.75 8C1.75 7.58579 1.41421 7.25 1 7.25C0.585786 7.25 0.25 7.58579 0.25 8H1.75ZM7 15.75C7.41421 15.75 7.75 15.4142 7.75 15C7.75 14.5858 7.41421 14.25 7 14.25V15.75ZM0.25 8C0.25 8.41421 0.585786 8.75 1 8.75C1.41421 8.75 1.75 8.41421 1.75 8H0.25ZM7 1.75C7.41421 1.75 7.75 1.41421 7.75 1C7.75 0.585787 7.41421 0.25 7 0.25V1.75ZM1 7.25C0.585786 7.25 0.25 7.58579 0.25 8C0.25 8.41421 0.585786 8.75 1 8.75V7.25ZM7 8.75C7.41421 8.75 7.75 8.41421 7.75 8C7.75 7.58579 7.41421 7.25 7 7.25L7 8.75ZM7.75 8C7.75 7.58579 7.41421 7.25 7 7.25C6.58579 7.25 6.25 7.58579 6.25 8H7.75ZM6.25 15C6.25 15.4142 6.58579 15.75 7 15.75C7.41421 15.75 7.75 15.4142 7.75 15H6.25ZM6.25 8C6.25 8.41421 6.58579 8.75 7 8.75C7.41421 8.75 7.75 8.41421 7.75 8H6.25ZM7.75 5C7.75 4.58579 7.41421 4.25 7 4.25C6.58579 4.25 6.25 4.58579 6.25 5H7.75ZM7.75 1C7.75 0.585787 7.41421 0.25 7 0.25C6.58579 0.25 6.25 0.585787 6.25 1H7.75ZM6.25 5C6.25 5.41421 6.58579 5.75 7 5.75C7.41421 5.75 7.75 5.41421 7.75 5H6.25ZM14.25 5V11H15.75V5L14.25 5ZM14.25 11C14.25 12.7949 12.7949 14.25 11 14.25V15.75C13.6234 15.75 15.75 13.6234 15.75 11H14.25ZM11 14.25H7V15.75H11V14.25ZM15.75 5C15.75 2.37665 13.6234 0.25 11 0.25L11 1.75C12.7949 1.75 14.25 3.20507 14.25 5L15.75 5ZM11 0.25H7V1.75H11L11 0.25ZM15 4.25H7V5.75H15V4.25ZM0.25 8L0.25 11H1.75L1.75 8H0.25ZM0.25 11C0.25 13.6234 2.37665 15.75 5 15.75V14.25C3.20507 14.25 1.75 12.7949 1.75 11H0.25ZM5 15.75H7V14.25H5V15.75ZM1.75 8L1.75 5H0.25L0.25 8H1.75ZM1.75 5C1.75 3.20507 3.20507 1.75 5 1.75V0.25C2.37665 0.25 0.25 2.37665 0.25 5H1.75ZM5 1.75H7V0.25H5V1.75ZM1 8.75H7L7 7.25H1V8.75ZM6.25 8V15H7.75V8H6.25ZM7.75 8L7.75 5H6.25L6.25 8H7.75ZM6.25 1V5H7.75V1H6.25Z" fill="currentColor"/>
</svg>
