<?xml version="1.0" encoding="UTF-8"?>
<svg id="Layer_1" xmlns="http://www.w3.org/2000/svg" viewBox="0 0 19 19">
  <defs>
    <style>
      .cls-1 {
        fill: #605e5c;
        fill-rule: evenodd;
        isolation: isolate;
        opacity: .67;
      }

      .cls-2 {
        fill: #185abd;
      }

      .cls-3 {
        fill: #fff;
      }

      .cls-4 {
        fill: #2b7cd3;
      }

      .cls-5 {
        fill: #41a5ee;
      }
    </style>
  </defs>
  <path class="cls-3" d="M7,16.5h9c.27,0,.5-.23.5-.5V6.5h-1.5c-.83,0-1.5-.67-1.5-1.5v-2.5h-6.5c-.28,0-.5.23-.5.5v13c0,.27.22.5.5.5Z"/>
  <path class="cls-3" d="M16.5,5.5v-.09c0-.13-.05-.26-.15-.35l-1.85-1.85v1.79c0,.28.23.5.5.5h1.5Z"/>
  <path class="cls-1" d="M17.06,4.35l-2.41-2.41c-.28-.28-.66-.44-1.06-.44h-6.59c-.83,0-1.5.67-1.5,1.5v13c0,.83.67,1.5,1.5,1.5h9c.83,0,1.5-.67,1.5-1.5V5.41c0-.4-.16-.78-.44-1.06h0ZM16.35,5.06c.1.09.15.22.15.35v.09h-1.5c-.28,0-.5-.22-.5-.5v-1.79l1.85,1.85h0ZM7,16.5h9c.27,0,.5-.23.5-.5V6.5h-1.5c-.83,0-1.5-.67-1.5-1.5v-2.5h-6.5c-.28,0-.5.23-.5.5v13c0,.28.22.5.5.5Z"/>
  <path class="cls-2" d="M15,11.5h-3.5v1h3.5c.28,0,.5-.22.5-.5s-.22-.5-.5-.5Z"/>
  <path class="cls-4" d="M15,9.5h-3.5v1h3.5c.28,0,.5-.22.5-.5s-.22-.5-.5-.5Z"/>
  <path class="cls-5" d="M15,7.5h-3.5v1h3.5c.28,0,.5-.22.5-.5s-.22-.5-.5-.5Z"/>
  <path class="cls-2" d="M2.5,14.5h7c.55,0,1-.45,1-1v-7c0-.55-.45-1-1-1H2.5c-.55,0-1,.45-1,1v7c0,.55.45,1,1,1Z"/>
  <path class="cls-3" d="M7.36,12.47h-.58l-.76-3.76-.82,3.77h-.47l-1.21-4.99h.73s.7,3.31.7,3.31l.72-3.31h.71l.81,3.3.61-3.27h.71s-1.13,4.94-1.13,4.94Z"/>
</svg>