<?xml version="1.0" encoding="UTF-8"?>
<svg id="Layer_1" xmlns="http://www.w3.org/2000/svg" viewBox="0 0 19 19">
  <defs>
    <style>
      .cls-1 {
        fill: #ea4335;
        fill-rule: evenodd;
      }
    </style>
  </defs>
  <path class="cls-1" d="M3.28,1.5h12.44c.98,0,1.78.8,1.78,1.78v12.44c0,.98-.8,1.78-1.78,1.78H3.28c-.98,0-1.78-.8-1.78-1.78V3.28c0-.98.8-1.78,1.78-1.78ZM5.94,9.06h-.89v-.89h.89v.89ZM7.28,9.06c0,.74-.6,1.33-1.33,1.33h-.89v1.78h-1.33v-5.33h2.22c.74,0,1.33.6,1.33,1.33v.89ZM13.94,8.17h2.22v-1.33h-3.56v5.33h1.33v-1.78h1.33v-1.33h-1.33v-.89h0ZM11.72,10.83c0,.74-.6,1.33-1.33,1.33h-2.22v-5.33h2.22c.74,0,1.33.6,1.33,1.33v2.67ZM10.39,10.83h-.89v-2.67h.89v2.67Z"/>
</svg>