<svg id="pencil" width="16" height="17" viewBox="0 0 16 17" fill="none" xmlns="http://www.w3.org/2000/svg">
<path fill-rule="evenodd" clip-rule="evenodd" d="M5.308 1.00001H10.829C10.8863 1.00001 10.9433 1.00367 11 1.01101C13.2473 1.16817 14.9924 3.0332 15 5.28601V11.715C14.9917 14.0871 13.0641 16.0044 10.692 16H5.308C2.93551 16.0044 1.00772 14.0865 1 11.714V5.28601C1.00772 2.91353 2.93551 0.995581 5.308 1.00001Z" stroke="currentColor" stroke-width="1.5" stroke-linecap="round" stroke-linejoin="round"/>
<path fill-rule="evenodd" clip-rule="evenodd" d="M5.71399 4.1289L4.22299 5.3289C4.07897 5.46615 3.99796 5.65675 3.9991 5.85569C4.00023 6.05464 4.08341 6.2443 4.22899 6.3799L5.19199 7.5389L9.21799 12.3799C9.2851 12.4579 9.37499 12.5128 9.47499 12.5369L11.475 12.9939C11.7394 13.0089 11.9697 12.815 12 12.5519L11.907 10.6059C11.9001 10.506 11.86 10.4113 11.793 10.3369L7.85999 5.6069L6.79999 4.3339C6.5448 3.9961 6.07477 3.90737 5.71399 4.1289Z" stroke="currentColor" stroke-width="1.5" stroke-linecap="round" stroke-linejoin="round"/>
<path d="M15 6.07574C15.4142 6.07574 15.75 5.73996 15.75 5.32574C15.75 4.91153 15.4142 4.57574 15 4.57574V6.07574ZM11 5.32574H10.25C10.25 5.73996 10.5858 6.07574 11 6.07574V5.32574ZM11.75 1.01074C11.75 0.596529 11.4142 0.260742 11 0.260742C10.5858 0.260742 10.25 0.596529 10.25 1.01074H11.75ZM8.59889 5.73945C8.66998 5.33139 8.3968 4.94295 7.98873 4.87187C7.58066 4.80078 7.19223 5.07396 7.12114 5.48203L8.59889 5.73945ZM5.30283 6.79397C4.89316 6.73278 4.51145 7.01527 4.45025 7.42493C4.38905 7.8346 4.67154 8.21631 5.08121 8.27751L5.30283 6.79397ZM15 4.57574H11V6.07574H15V4.57574ZM11.75 5.32574V1.01074H10.25V5.32574H11.75ZM7.12114 5.48203C6.97162 6.3404 6.16456 6.9227 5.30283 6.79397L5.08121 8.27751C6.7483 8.52655 8.30961 7.40004 8.59889 5.73945L7.12114 5.48203Z" fill="currentColor"/>
</svg>
