<svg width="13" height="12" viewBox="0 0 13 12" fill="none" xmlns="http://www.w3.org/2000/svg">
<path fill-rule="evenodd" clip-rule="evenodd" d="M5.756 3.88128L8.12675 5.49228C8.28033 5.58195 8.37476 5.74643 8.37476 5.92428C8.37476 6.10212 8.28033 6.2666 8.12675 6.35628L5.756 8.11878C5.306 8.42403 4.625 8.16378 4.625 7.68678V4.31178C4.625 3.83703 5.30675 3.57603 5.756 3.88128Z" stroke="#212121" stroke-width="1.5" stroke-linecap="round" stroke-linejoin="round"/>
<path fill-rule="evenodd" clip-rule="evenodd" d="M1.25 5.25V6.75C1.25 9.23528 3.26472 11.25 5.75 11.25H7.25C9.73528 11.25 11.75 9.23528 11.75 6.75V5.25C11.75 2.76472 9.73528 0.75 7.25 0.75H5.75C3.26472 0.75 1.25 2.76472 1.25 5.25Z" stroke="#212121" stroke-width="1.5" stroke-linecap="round" stroke-linejoin="round"/>
</svg>
