<svg width="38" height="29" viewBox="0 0 38 29" fill="none" xmlns="http://www.w3.org/2000/svg">
<path d="M38 0V8.24044H34.8609C33.429 8.24044 32.2725 8.42532 31.3913 8.79508C30.5652 9.16485 29.9319 9.87796 29.4913 10.9344C29.1058 11.9381 28.913 13.3907 28.913 15.2923V21.0765L26.187 15.6885C26.5725 15.3716 27.1507 15.1075 27.9217 14.8962C28.6928 14.6321 29.5464 14.5 30.4826 14.5C32.5754 14.5 34.3101 15.1075 35.687 16.3224C37.1188 17.5373 37.8348 19.2541 37.8348 21.4727C37.8348 23.5328 37.1464 25.3024 35.7696 26.7814C34.4478 28.2605 32.4652 29 29.8217 29C28.1145 29 26.5449 28.6302 25.113 27.8907C23.7362 27.0984 22.6072 25.8306 21.7261 24.0874C20.9 22.2914 20.487 19.888 20.487 16.877V15.847C20.487 12.1494 21.0652 9.13843 22.2217 6.81421C23.3783 4.48998 25.0855 2.77322 27.3435 1.66394C29.6014 0.554645 32.4101 0 35.7696 0H38ZM17.513 0V8.24044H14.3739C12.942 8.24044 11.7855 8.42532 10.9043 8.79508C10.0783 9.16485 9.44493 9.87796 9.00435 10.9344C8.61884 11.9381 8.42609 13.3907 8.42609 15.2923V21.0765L5.7 15.6885C6.08551 15.3716 6.66377 15.1075 7.43478 14.8962C8.2058 14.6321 9.05942 14.5 9.99565 14.5C12.0884 14.5 13.8232 15.1075 15.2 16.3224C16.6319 17.5373 17.3478 19.2541 17.3478 21.4727C17.3478 23.5328 16.6594 25.3024 15.2826 26.7814C13.9609 28.2605 11.9783 29 9.33478 29C7.62754 29 6.05797 28.6302 4.62609 27.8907C3.24928 27.0984 2.12029 25.8306 1.23913 24.0874C0.413043 22.2914 0 19.888 0 16.877V15.847C0 12.1494 0.578261 9.13843 1.73478 6.81421C2.8913 4.48998 4.59855 2.77322 6.85652 1.66394C9.11449 0.554645 11.9232 0 15.2826 0H17.513Z" fill="url(#paint0_linear_14_567)"/>
<defs>
<linearGradient id="paint0_linear_14_567" x1="19" y1="9.14695" x2="19" y2="42.0448" gradientUnits="userSpaceOnUse">
<stop stop-color="#82C4F4"/>
<stop offset="1" stop-color="#BCE762"/>
</linearGradient>
</defs>
</svg>
