<svg width="19" height="18" viewBox="0 0 19 18" fill="none" xmlns="http://www.w3.org/2000/svg">
<path fill-rule="evenodd" clip-rule="evenodd" d="M8.756 6.88125L11.1267 8.49225C11.2803 8.58192 11.3748 8.7464 11.3748 8.92425C11.3748 9.10209 11.2803 9.26657 11.1267 9.35625L8.756 11.1187C8.306 11.424 7.625 11.1637 7.625 10.6867V7.31175C7.625 6.837 8.30675 6.576 8.756 6.88125Z" stroke="#212121" stroke-width="1.5" stroke-linecap="round" stroke-linejoin="round"/>
<path fill-rule="evenodd" clip-rule="evenodd" d="M4.25 8.25V9.75C4.25 12.2353 6.26472 14.25 8.75 14.25H10.25C12.7353 14.25 14.75 12.2353 14.75 9.75V8.25C14.75 5.76472 12.7353 3.75 10.25 3.75H8.75C6.26472 3.75 4.25 5.76472 4.25 8.25Z" stroke="#212121" stroke-width="1.5" stroke-linecap="round" stroke-linejoin="round"/>
</svg>
