<?xml version="1.0" encoding="UTF-8"?>
<svg id="Layer_1" xmlns="http://www.w3.org/2000/svg" viewBox="0 0 19 19">
  <defs>
    <style>
      .cls-1 {
        fill: #605e5c;
        fill-rule: evenodd;
        isolation: isolate;
        opacity: .67;
      }

      .cls-2 {
        fill: #21a366;
      }

      .cls-3 {
        fill: #33c481;
      }

      .cls-4 {
        fill: #fff;
      }

      .cls-5 {
        fill: #107c41;
      }

      .cls-6 {
        fill: #134a2c;
      }
    </style>
  </defs>
  <path class="cls-4" d="M7,16.5h9c.27,0,.5-.23.5-.5V6.5h-1.5c-.83,0-1.5-.67-1.5-1.5v-2.5h-6.5c-.28,0-.5.23-.5.5v13c0,.27.22.5.5.5Z"/>
  <path class="cls-4" d="M16.5,5.5v-.09c0-.13-.05-.26-.15-.35l-1.85-1.85v1.79c0,.28.23.5.5.5h1.5Z"/>
  <path class="cls-1" d="M17.06,4.35l-2.41-2.41c-.28-.28-.66-.44-1.06-.44h-6.59c-.83,0-1.5.67-1.5,1.5v13c0,.83.67,1.5,1.5,1.5h9c.83,0,1.5-.67,1.5-1.5V5.41c0-.4-.16-.78-.44-1.06h0ZM16.35,5.06c.1.09.15.22.15.35v.09h-1.5c-.28,0-.5-.22-.5-.5v-1.79l1.85,1.85h0ZM7,16.5h9c.27,0,.5-.23.5-.5V6.5h-1.5c-.83,0-1.5-.67-1.5-1.5v-2.5h-6.5c-.28,0-.5.23-.5.5v13c0,.28.22.5.5.5Z"/>
  <path class="cls-6" d="M15,11.5h-3c-.28,0-.5.22-.5.5s.22.5.5.5h3c.28,0,.5-.22.5-.5s-.22-.5-.5-.5Z"/>
  <path class="cls-2" d="M15,9.5h-3c-.28,0-.5.22-.5.5s.22.5.5.5h3c.28,0,.5-.22.5-.5s-.22-.5-.5-.5Z"/>
  <path class="cls-3" d="M15,7.5h-3c-.28,0-.5.22-.5.5s.22.5.5.5h3c.28,0,.5-.22.5-.5s-.22-.5-.5-.5Z"/>
  <path class="cls-5" d="M2.5,14.5h7c.55,0,1-.45,1-1v-7c0-.55-.45-1-1-1H2.5c-.55,0-1,.45-1,1v7c0,.55.45,1,1,1Z"/>
  <path class="cls-4" d="M6.91,12.5l-2.65-5h.82l2.69,5h-.87Z"/>
  <path class="cls-4" d="M5.13,12.5l2.65-5h-.82l-2.69,5s.87,0,.87,0Z"/>
</svg>